<?xml version="1.0" encoding="utf-8"?>
<!-- Generator: Adobe Illustrator 17.0.0, SVG Export Plug-In . SVG Version: 6.00 Build 0)  -->
<!DOCTYPE svg PUBLIC "-//W3C//DTD SVG 1.1//EN" "http://www.w3.org/Graphics/SVG/1.1/DTD/svg11.dtd">
<svg version="1.1" id="BLOQUES_2_" xmlns="http://www.w3.org/2000/svg" xmlns:xlink="http://www.w3.org/1999/xlink" x="0px" y="0px"
	 width="3000px" height="499.999px" viewBox="0 0 3000 499.999" enable-background="new 0 0 3000 499.999" xml:space="preserve">
<g id="BLOQUES">
	<rect x="0"  y="350" fill="#201E1E" width="50" height="50"/>
	<rect x="50" y="350" fill="#201E1E" width="50" height="50"/>
	<rect x="150" y="350" fill="#201E1E" width="50" height="50"/>
	<rect x="100" y="350" fill="#201E1E" width="50" height="50"/>
	<rect x="350" y="350" fill="#201E1E" width="50" height="50"/>
	<rect x="300" y="350" fill="#201E1E" width="50" height="50"/>
	<rect x="200" y="350" fill="#201E1E" width="50" height="50"/>
	<rect x="250" y="350" fill="#201E1E" width="50" height="50"/>
	<rect x="750" y="350" fill="#201E1E" width="50" height="50"/>
	<rect x="700" y="350" fill="#201E1E" width="50" height="50"/>
	<rect x="600" y="350" fill="#201E1E" width="50" height="50"/>
	<rect x="650" y="350" fill="#201E1E" width="50" height="50"/>
	<rect x="400" y="350" fill="#201E1E" width="50" height="50"/>
	<rect x="450" y="350" fill="#201E1E" width="50" height="50"/>
	<rect x="550" y="350" fill="#201E1E" width="50" height="50"/>
	<rect x="500" y="350" fill="#201E1E" width="50" height="50"/>
	<rect x="800" y="350" fill="#201E1E" width="50" height="50"/>
	<rect x="850" y="350" fill="#201E1E" width="50" height="50"/>
	<rect x="900" y="350" fill="#201E1E" width="50" height="50"/>
	<rect x="950" y="350" fill="#201E1E" width="50" height="50"/>
	<rect x="0" y="200" fill="#201E1E" width="50" height="50"/>
	<rect x="0" y="150" fill="#201E1E" width="50" height="50"/>
	<rect x="0" y="50" fill="#201E1E" width="50" height="50"/>
	<rect x="0" y="100" fill="#201E1E" width="50" height="50"/>
	<rect x="0" y="0" fill="#201E1E" width="50" height="50"/>
	<rect x="0" y="0" fill="#201E1E" width="50" height="10"/>
	<rect x="50" y="0" fill="#201E1E" width="50" height="10"/>
	<rect x="150" y="0" fill="#201E1E" width="50" height="10"/>
	<rect x="100" y="0" fill="#201E1E" width="50" height="10"/>
	<rect x="350" y="0" fill="#201E1E" width="50" height="10"/>
	<rect x="300" y="0" fill="#201E1E" width="50" height="10"/>
	<rect x="200" y="0" fill="#201E1E" width="50" height="10"/>
	<rect x="250" y="0" fill="#201E1E" width="50" height="10"/>
	<rect x="750" y="0" fill="#201E1E" width="50" height="10"/>
	<rect x="700" y="0" fill="#201E1E" width="50" height="10"/>
	<rect x="600" y="0" fill="#201E1E" width="50" height="10"/>
	<rect x="650" y="0" fill="#201E1E" width="50" height="10"/>
	<rect x="400" y="0" fill="#201E1E" width="50" height="10"/>
	<rect x="450" y="0" fill="#201E1E" width="50" height="10"/>
	<rect x="550" y="0" fill="#201E1E" width="50" height="10"/>
	<rect x="500" y="0" fill="#201E1E" width="50" height="10"/>
	<rect x="800" y="0" fill="#201E1E" width="50" height="10"/>
	<rect x="850" y="0" fill="#201E1E" width="50" height="10"/>
	<rect x="900" y="0" fill="#201E1E" width="50" height="10"/>
	<rect x="950" y="0" fill="#201E1E" width="50" height="10"/>
	<rect x="950" y="200" fill="#201E1E" width="50" height="50"/>
	<rect x="950" y="150" fill="#201E1E" width="50" height="50"/>
	<rect x="950" y="100" fill="#201E1E" width="50" height="50"/>
	<rect x="950" y="250" fill="#201E1E" width="50" height="50"/>
	<rect x="950" y="300" fill="#201E1E" width="50" height="50"/>
	<rect x="300" y="150" fill="#201E1E" width="50" height="50"/>
	<rect x="300" y="200" fill="#201E1E" width="50" height="50"/>
	<rect x="300" y="300" fill="#201E1E" width="50" height="50"/>
	<rect x="300" y="250" fill="#201E1E" width="50" height="50"/>
	<rect x="50" y="230" fill="#201E1E" width="50" height="20"/>
	<rect x="100" y="230" fill="#201E1E" width="50" height="20"/>
	<rect x="150" y="230" fill="#201E1E" width="50" height="20"/>
	<rect x="300" y="100" fill="#201E1E" width="50" height="50"/>
	<rect x="250" y="100" fill="#201E1E" width="50" height="20"/>
	<rect x="200" y="100" fill="#201E1E" width="50" height="20"/>
	<rect x="150" y="100" fill="#201E1E" width="50" height="20"/>
	<rect x="450" y="150" fill="#201E1E" width="50" height="50"/>
	<rect x="450" y="100" fill="#201E1E" width="50" height="50"/>
	<rect x="450" y="0" fill="#201E1E" width="50" height="50"/>
	<rect x="450" y="50" fill="#201E1E" width="50" height="50"/>
	<rect x="450" y="200" fill="#201E1E" width="50" height="50"/>
	<rect x="600" y="150" fill="#201E1E" width="50" height="50"/>
	<rect x="600" y="200" fill="#201E1E" width="50" height="50"/>
	<rect x="600" y="300" fill="#201E1E" width="50" height="50"/>
	<rect x="600" y="250" fill="#201E1E" width="50" height="50"/>
	<rect x="600" y="100" fill="#201E1E" width="50" height="50"/>
	<rect x="750.001" y="150" fill="#201E1E" width="50" height="50"/>
	<rect x="750" y="100" fill="#201E1E" width="50" height="50"/>
	<rect x="750" y="0" fill="#201E1E" width="50" height="50"/>
	<rect x="750" y="50.015" fill="#201E1E" width="50" height="50"/>
	<rect x="750.002" y="199.989" fill="#201E1E" width="50" height="50"/>
	<rect x="800" y="150" fill="#201E1E" width="50" height="23"/>
	<rect x="900" y="100" fill="#201E1E" width="50" height="22"/>
	<rect x="900" y="277" fill="#201E1E" width="50" height="23"/>
	<rect x="250" y="275" fill="#201E1E" width="50" height="25"/>
	<rect x="50" y="147" fill="#201E1E" width="50" height="23"/>
	<rect x="400" y="150" fill="#201E1E" width="50" height="24"/>
	<rect x="350" y="227" fill="#201E1E" width="50" height="23"/>
	<rect x="550" y="277" fill="#201E1E" width="50" height="23"/>
	<rect x="500" y="200" fill="#201E1E" width="50" height="23"/>
	<rect x="550" y="120" fill="#201E1E" width="50" height="23"/>
	<rect x="1950" y="350" fill="#201E1E" width="50" height="50"/>
	<rect x="1900" y="350" fill="#201E1E" width="50" height="50"/>
	<rect x="1800" y="350" fill="#201E1E" width="50" height="50"/>
	<rect x="1850" y="350" fill="#201E1E" width="50" height="50"/>
	<rect x="1600" y="350" fill="#201E1E" width="50" height="50"/>
	<rect x="1650" y="350" fill="#201E1E" width="50" height="50"/>
	<rect x="1750" y="350" fill="#201E1E" width="50" height="50"/>
	<rect x="1700" y="350" fill="#201E1E" width="50" height="50"/>
	<rect x="1200" y="350" fill="#201E1E" width="50" height="50"/>
	<rect x="1250" y="350" fill="#201E1E" width="50" height="50"/>
	<rect x="1350" y="350" fill="#201E1E" width="50" height="50"/>
	<rect x="1300" y="350" fill="#201E1E" width="50" height="50"/>
	<rect x="1550" y="350" fill="#201E1E" width="50" height="50"/>
	<rect x="1500" y="350" fill="#201E1E" width="50" height="50"/>
	<rect x="1400" y="350" fill="#201E1E" width="50" height="50"/>
	<rect x="1450" y="350" fill="#201E1E" width="50" height="50"/>
	<rect x="1150" y="350" fill="#201E1E" width="50" height="50"/>
	<rect x="1100" y="350" fill="#201E1E" width="50" height="50"/>
	<rect x="1050" y="350" fill="#201E1E" width="50" height="50"/>
	<rect x="1000" y="350" fill="#201E1E" width="50" height="50"/>
	<rect x="1950" y="200" fill="#201E1E" width="50" height="50"/>
	<rect x="1950" y="150" fill="#201E1E" width="50" height="50"/>
	<rect x="1950" y="50" fill="#201E1E" width="50" height="50"/>
	<rect x="1950" y="100" fill="#201E1E" width="50" height="50"/>
	<rect x="1950" y="0" fill="#201E1E" width="50" height="50"/>
	<rect x="1950" y="0" fill="#201E1E" width="50" height="10"/>
	<rect x="1900" y="0" fill="#201E1E" width="50" height="10"/>
	<rect x="1800" y="0" fill="#201E1E" width="50" height="10"/>
	<rect x="1850" y="0" fill="#201E1E" width="50" height="10"/>
	<rect x="1600" y="0" fill="#201E1E" width="50" height="10"/>
	<rect x="1650" y="0" fill="#201E1E" width="50" height="10"/>
	<rect x="1750" y="0" fill="#201E1E" width="50" height="10"/>
	<rect x="1700" y="0" fill="#201E1E" width="50" height="10"/>
	<rect x="1200" y="0" fill="#201E1E" width="50" height="10"/>
	<rect x="1250" y="0" fill="#201E1E" width="50" height="10"/>
	<rect x="1350" y="0" fill="#201E1E" width="50" height="10"/>
	<rect x="1300" y="0" fill="#201E1E" width="50" height="10"/>
	<rect x="1550" y="0" fill="#201E1E" width="50" height="10"/>
	<rect x="1500" y="0" fill="#201E1E" width="50" height="10"/>
	<rect x="1400" y="0" fill="#201E1E" width="50" height="10"/>
	<rect x="1450" y="0" fill="#201E1E" width="50" height="10"/>
	<rect x="1150" y="0" fill="#201E1E" width="50" height="10"/>
	<rect x="1100" y="0" fill="#201E1E" width="50" height="10"/>
	<rect x="1050" y="0" fill="#201E1E" width="50" height="10"/>
	<rect x="1000" y="0" fill="#201E1E" width="50" height="10"/>
	<rect x="1000" y="200" fill="#201E1E" width="50" height="50"/>
	<rect x="1000" y="150" fill="#201E1E" width="50" height="50"/>
	<rect x="1000" y="100" fill="#201E1E" width="50" height="50"/>
	<rect x="1000" y="250" fill="#201E1E" width="50" height="50"/>
	<rect x="1000" y="300" fill="#201E1E" width="50" height="50"/>
	<rect x="1650" y="150" fill="#201E1E" width="50" height="50"/>
	<rect x="1650" y="200" fill="#201E1E" width="50" height="50"/>
	<rect x="1650" y="300" fill="#201E1E" width="50" height="50"/>
	<rect x="1650" y="250" fill="#201E1E" width="50" height="50"/>
	<rect x="1900" y="230" fill="#201E1E" width="50" height="20"/>
	<rect x="1850" y="230" fill="#201E1E" width="50" height="20"/>
	<rect x="1800" y="230" fill="#201E1E" width="50" height="20"/>
	<rect x="1650" y="100" fill="#201E1E" width="50" height="50"/>
	<rect x="1700" y="100" fill="#201E1E" width="50" height="20"/>
	<rect x="1750" y="100" fill="#201E1E" width="50" height="20"/>
	<rect x="1800" y="100" fill="#201E1E" width="50" height="20"/>
	<rect x="1500" y="150" fill="#201E1E" width="50" height="50"/>
	<rect x="1500" y="100" fill="#201E1E" width="50" height="50"/>
	<rect x="1500" y="0" fill="#201E1E" width="50" height="50"/>
	<rect x="1500" y="50" fill="#201E1E" width="50" height="50"/>
	<rect x="1500" y="200" fill="#201E1E" width="50" height="50"/>
	<rect x="1350" y="150" fill="#201E1E" width="50" height="50"/>
	<rect x="1350" y="200" fill="#201E1E" width="50" height="50"/>
	<rect x="1350" y="300" fill="#201E1E" width="50" height="50"/>
	<rect x="1350" y="250" fill="#201E1E" width="50" height="50"/>
	<rect x="1350" y="100" fill="#201E1E" width="50" height="50"/>
	<rect x="1200" y="150" fill="#201E1E" width="50" height="50"/>
	<rect x="1200" y="100" fill="#201E1E" width="50" height="50"/>
	<rect x="1200" y="0" fill="#201E1E" width="50" height="50"/>
	<rect x="1200" y="50" fill="#201E1E" width="50" height="50"/>
	<rect x="1200" y="200" fill="#201E1E" width="50" height="50"/>
	<rect x="1150" y="200" fill="#201E1E" width="50" height="23"/>
	<rect x="1050" y="100" fill="#201E1E" width="50" height="22"/>
	<rect x="1050" y="257" fill="#201E1E" width="50" height="23"/>
	<rect x="1700" y="275" fill="#201E1E" width="50" height="25"/>
	<rect x="1900" y="147" fill="#201E1E" width="50" height="23"/>
	<rect x="1550" y="120" fill="#201E1E" width="50" height="24"/>
	<rect x="1300" y="277" fill="#201E1E" width="50" height="23"/>
	<rect x="1450" y="200" fill="#201E1E" width="50" height="23"/>
	<rect x="1250" y="120" fill="#201E1E" width="50" height="23"/>
	<rect x="2000" y="350" fill="#201E1E" width="50" height="50"/>
	<rect x="2050" y="350" fill="#201E1E" width="50" height="50"/>
	<rect x="2150" y="350" fill="#201E1E" width="50" height="50"/>
	<rect x="2100" y="350" fill="#201E1E" width="50" height="50"/>
	<rect x="2350" y="350" fill="#201E1E" width="50" height="50"/>
	<rect x="2300" y="350" fill="#201E1E" width="50" height="50"/>
	<rect x="2200" y="350" fill="#201E1E" width="50" height="50"/>
	<rect x="2250" y="350" fill="#201E1E" width="50" height="50"/>
	<rect x="2750" y="350" fill="#201E1E" width="50" height="50"/>
	<rect x="2700" y="350" fill="#201E1E" width="50" height="50"/>
	<rect x="2600" y="350" fill="#201E1E" width="50" height="50"/>
	<rect x="2650" y="350" fill="#201E1E" width="50" height="50"/>
	<rect x="2400" y="350" fill="#201E1E" width="50" height="50"/>
	<rect x="2450" y="350" fill="#201E1E" width="50" height="50"/>
	<rect x="2550" y="350" fill="#201E1E" width="50" height="50"/>
	<rect x="2500" y="350" fill="#201E1E" width="50" height="50"/>
	<rect x="2800" y="350" fill="#201E1E" width="50" height="50"/>
	<rect x="2850" y="350" fill="#201E1E" width="50" height="50"/>
	<rect x="2900" y="350" fill="#201E1E" width="50" height="50"/>
	<rect x="2950" y="350" fill="#201E1E" width="50" height="50"/>
	<rect x="2000" y="200" fill="#201E1E" width="50" height="50"/>
	<rect x="2000" y="150" fill="#201E1E" width="50" height="50"/>
	<rect x="2000" y="50" fill="#201E1E" width="50" height="50"/>
	<rect x="2000" y="100" fill="#201E1E" width="50" height="50"/>
	<rect x="2000" y="0" fill="#201E1E" width="50" height="50"/>
	<rect x="2000" y="0" fill="#201E1E" width="50" height="10"/>
	<rect x="2050" y="0" fill="#201E1E" width="50" height="10"/>
	<rect x="2150" y="0" fill="#201E1E" width="50" height="10"/>
	<rect x="2100" y="0" fill="#201E1E" width="50" height="10"/>
	<rect x="2350" y="0" fill="#201E1E" width="50" height="10"/>
	<rect x="2300" y="0" fill="#201E1E" width="50" height="10"/>
	<rect x="2200" y="0" fill="#201E1E" width="50" height="10"/>
	<rect x="2250" y="0" fill="#201E1E" width="50" height="10"/>
	<rect x="2750" y="0" fill="#201E1E" width="50" height="10"/>
	<rect x="2700" y="0" fill="#201E1E" width="50" height="10"/>
	<rect x="2600" y="0" fill="#201E1E" width="50" height="10"/>
	<rect x="2650" y="0" fill="#201E1E" width="50" height="10"/>
	<rect x="2400" y="0" fill="#201E1E" width="50" height="10"/>
	<rect x="2450" y="0" fill="#201E1E" width="50" height="10"/>
	<rect x="2550" y="0" fill="#201E1E" width="50" height="10"/>
	<rect x="2500" y="0" fill="#201E1E" width="50" height="10"/>
	<rect x="2800" y="0" fill="#201E1E" width="50" height="10"/>
	<rect x="2850" y="0" fill="#201E1E" width="50" height="10"/>
	<rect x="2900" y="0" fill="#201E1E" width="50" height="10"/>
	<rect x="2950" y="0" fill="#201E1E" width="50" height="10"/>
	<rect x="2950" y="200" fill="#201E1E" width="50" height="50"/>
	<rect x="2950" y="150" fill="#201E1E" width="50" height="50"/>
	<rect x="2950" y="100" fill="#201E1E" width="50" height="50"/>
	<rect x="2950" y="250" fill="#201E1E" width="50" height="50"/>
	<rect x="2950" y="300" fill="#201E1E" width="50" height="50"/>
	<rect x="2300" y="150" fill="#201E1E" width="50" height="50"/>
	<rect x="2300" y="200" fill="#201E1E" width="50" height="50"/>
	<rect x="2300" y="300" fill="#201E1E" width="50" height="50"/>
	<rect x="2300" y="250" fill="#201E1E" width="50" height="50"/>
	<rect x="2050" y="230" fill="#201E1E" width="50" height="20"/>
	<rect x="2100" y="230" fill="#201E1E" width="50" height="20"/>
	<rect x="2150" y="230" fill="#201E1E" width="50" height="20"/>
	<rect x="2300" y="100" fill="#201E1E" width="50" height="50"/>
	<rect x="2250" y="100" fill="#201E1E" width="50" height="20"/>
	<rect x="2200" y="100" fill="#201E1E" width="50" height="20"/>
	<rect x="2150" y="100" fill="#201E1E" width="50" height="20"/>
	<rect x="2450" y="150" fill="#201E1E" width="50" height="50"/>
	<rect x="2450" y="100" fill="#201E1E" width="50" height="50"/>
	<rect x="2450" y="0" fill="#201E1E" width="50" height="50"/>
	<rect x="2450" y="50" fill="#201E1E" width="50" height="50"/>
	<rect x="2450" y="200" fill="#201E1E" width="50" height="50"/>
	<rect x="2600" y="150" fill="#201E1E" width="50" height="50"/>
	<rect x="2600" y="200" fill="#201E1E" width="50" height="50"/>
	<rect x="2600" y="300" fill="#201E1E" width="50" height="50"/>
	<rect x="2600" y="250" fill="#201E1E" width="50" height="50"/>
	<rect x="2600" y="100" fill="#201E1E" width="50" height="50"/>
	<rect x="2750" y="150" fill="#201E1E" width="50" height="50"/>
	<rect x="2750" y="100" fill="#201E1E" width="50" height="50"/>
	<rect x="2750" y="0" fill="#201E1E" width="50" height="50"/>
	<rect x="2750" y="50" fill="#201E1E" width="50" height="50"/>
	<rect x="2750" y="200" fill="#201E1E" width="50" height="50"/>
	<rect x="2900" y="170" fill="#201E1E" width="50" height="23"/>
	<rect x="2900" y="100" fill="#201E1E" width="50" height="22"/>
	<rect x="2900" y="277" fill="#201E1E" width="50" height="23"/>
	<rect x="2250" y="275" fill="#201E1E" width="50" height="25"/>
	<rect x="2050" y="147" fill="#201E1E" width="50" height="23"/>
	<rect x="2400" y="120" fill="#201E1E" width="50" height="24"/>
	<rect x="2350" y="227" fill="#201E1E" width="50" height="23"/>
	<rect x="2550" y="277" fill="#201E1E" width="50" height="23"/>
	<rect x="2500" y="200" fill="#201E1E" width="50" height="23"/>
	<rect x="2550" y="120" fill="#201E1E" width="50" height="23"/>
	<rect x="800" y="228.972" fill="#201E1E" width="50" height="21"/>
	<rect x="1250" y="200" fill="#201E1E" width="50" height="23"/>
	<rect x="1550" y="200" fill="#201E1E" width="50" height="24"/>
	<rect x="1601" y="280" fill="#201E1E" width="50" height="23"/>
	<rect x="2800" y="200" fill="#201E1E" width="50" height="23"/>
	<rect x="0" y="450" fill="#201E1E" width="50" height="50"/>
	<rect x="50" y="450" fill="#201E1E" width="50" height="50"/>
	<rect x="150" y="450" fill="#201E1E" width="50" height="50"/>
	<rect x="100" y="450" fill="#201E1E" width="50" height="50"/>
	<rect x="350" y="450" fill="#201E1E" width="50" height="50"/>
	<rect x="300" y="450" fill="#201E1E" width="50" height="50"/>
	<rect x="200" y="450" fill="#201E1E" width="50" height="50"/>
	<rect x="250" y="450" fill="#201E1E" width="50" height="50"/>
	<rect x="750" y="450" fill="#201E1E" width="50" height="50"/>
	<rect x="700" y="450" fill="#201E1E" width="50" height="50"/>
	<rect x="600" y="450" fill="#201E1E" width="50" height="50"/>
	<rect x="650" y="450" fill="#201E1E" width="50" height="50"/>
	<rect x="400" y="450" fill="#201E1E" width="50" height="50"/>
	<rect x="450" y="450" fill="#201E1E" width="50" height="50"/>
	<rect x="550" y="450" fill="#201E1E" width="50" height="50"/>
	<rect x="500" y="450" fill="#201E1E" width="50" height="50"/>
	<rect x="800" y="450" fill="#201E1E" width="50" height="50"/>
	<rect x="850" y="450" fill="#201E1E" width="50" height="50"/>
	<rect x="900" y="450" fill="#201E1E" width="50" height="50"/>
	<rect x="950" y="450" fill="#201E1E" width="50" height="50"/>
	<rect x="1950" y="450" fill="#201E1E" width="50" height="50"/>
	<rect x="1900" y="450" fill="#201E1E" width="50" height="50"/>
	<rect x="1800" y="450" fill="#201E1E" width="50" height="50"/>
	<rect x="1850" y="450" fill="#201E1E" width="50" height="50"/>
	<rect x="1600" y="450" fill="#201E1E" width="50" height="50"/>
	<rect x="1650" y="450" fill="#201E1E" width="50" height="50"/>
	<rect x="1750" y="450" fill="#201E1E" width="50" height="50"/>
	<rect x="1700" y="450" fill="#201E1E" width="50" height="50"/>
	<rect x="1200" y="450" fill="#201E1E" width="50" height="50"/>
	<rect x="1250" y="450" fill="#201E1E" width="50" height="50"/>
	<rect x="1350" y="450" fill="#201E1E" width="50" height="50"/>
	<rect x="1300" y="450" fill="#201E1E" width="50" height="50"/>
	<rect x="1550" y="450" fill="#201E1E" width="50" height="50"/>
	<rect x="1500" y="450" fill="#201E1E" width="50" height="50"/>
	<rect x="1400" y="450" fill="#201E1E" width="50" height="50"/>
	<rect x="1450" y="450" fill="#201E1E" width="50" height="50"/>
	<rect x="1150" y="450" fill="#201E1E" width="50" height="50"/>
	<rect x="1100" y="450" fill="#201E1E" width="50" height="50"/>
	<rect x="1050" y="450" fill="#201E1E" width="50" height="50"/>
	<rect x="1000" y="450" fill="#201E1E" width="50" height="50"/>
	<rect x="2000" y="450" fill="#201E1E" width="50" height="50"/>
	<rect x="2050" y="450" fill="#201E1E" width="50" height="50"/>
	<rect x="2150" y="450" fill="#201E1E" width="50" height="50"/>
	<rect x="2100" y="450" fill="#201E1E" width="50" height="50"/>
	<rect x="2350" y="450" fill="#201E1E" width="50" height="50"/>
	<rect x="2300" y="450" fill="#201E1E" width="50" height="50"/>
	<rect x="2200" y="450" fill="#201E1E" width="50" height="50"/>
	<rect x="2250" y="450" fill="#201E1E" width="50" height="50"/>
	<rect x="2750" y="450" fill="#201E1E" width="50" height="50"/>
	<rect x="2700" y="450" fill="#201E1E" width="50" height="50"/>
	<rect x="2600" y="450" fill="#201E1E" width="50" height="50"/>
	<rect x="2650" y="450" fill="#201E1E" width="50" height="50"/>
	<rect x="2400" y="450" fill="#201E1E" width="50" height="50"/>
	<rect x="2450" y="450" fill="#201E1E" width="50" height="50"/>
	<rect x="2550" y="450" fill="#201E1E" width="50" height="50"/>
	<rect x="2500" y="450" fill="#201E1E" width="50" height="50"/>
	<rect x="2800" y="450" fill="#201E1E" width="50" height="50"/>
	<rect x="2850" y="450" fill="#201E1E" width="50" height="50"/>
	<rect x="2900" y="450" fill="#201E1E" width="50" height="50"/>
	<rect x="2950" y="450" fill="#201E1E" width="50" height="50"/>
	<rect x="0" y="400" fill="#201E1E" width="50" height="50"/>
	<rect x="50" y="400" fill="#201E1E" width="50" height="50"/>
	<rect x="150" y="400" fill="#201E1E" width="50" height="50"/>
	<rect x="100" y="400" fill="#201E1E" width="50" height="50"/>
	<rect x="350" y="400" fill="#201E1E" width="50" height="50"/>
	<rect x="300" y="400" fill="#201E1E" width="50" height="50"/>
	<rect x="200" y="400" fill="#201E1E" width="50" height="50"/>
	<rect x="250" y="400" fill="#201E1E" width="50" height="50"/>
	<rect x="750" y="400" fill="#201E1E" width="50" height="50"/>
	<rect x="700" y="400" fill="#201E1E" width="50" height="50"/>
	<rect x="600" y="400" fill="#201E1E" width="50" height="50"/>
	<rect x="650" y="400" fill="#201E1E" width="50" height="50"/>
	<rect x="400" y="400" fill="#201E1E" width="50" height="50"/>
	<rect x="450" y="400" fill="#201E1E" width="50" height="50"/>
	<rect x="550" y="400" fill="#201E1E" width="50" height="50"/>
	<rect x="500" y="400" fill="#201E1E" width="50" height="50"/>
	<rect x="800" y="400" fill="#201E1E" width="50" height="50"/>
	<rect x="850" y="400" fill="#201E1E" width="50" height="50"/>
	<rect x="900" y="400" fill="#201E1E" width="50" height="50"/>
	<rect x="950" y="400" fill="#201E1E" width="50" height="50"/>
	<rect x="1950" y="400" fill="#201E1E" width="50" height="50"/>
	<rect x="1900" y="400" fill="#201E1E" width="50" height="50"/>
	<rect x="1800" y="400" fill="#201E1E" width="50" height="50"/>
	<rect x="1850" y="400" fill="#201E1E" width="50" height="50"/>
	<rect x="1600" y="400" fill="#201E1E" width="50" height="50"/>
	<rect x="1650" y="400" fill="#201E1E" width="50" height="50"/>
	<rect x="1750" y="400" fill="#201E1E" width="50" height="50"/>
	<rect x="1700" y="400" fill="#201E1E" width="50" height="50"/>
	<rect x="1200" y="400" fill="#201E1E" width="50" height="50"/>
	<rect x="1250" y="400" fill="#201E1E" width="50" height="50"/>
	<rect x="1350" y="400" fill="#201E1E" width="50" height="50"/>
	<rect x="1300" y="400" fill="#201E1E" width="50" height="50"/>
	<rect x="1550" y="400" fill="#201E1E" width="50" height="50"/>
	<rect x="1500" y="400" fill="#201E1E" width="50" height="50"/>
	<rect x="1400" y="400" fill="#201E1E" width="50" height="50"/>
	<rect x="1450" y="400" fill="#201E1E" width="50" height="50"/>
	<rect x="1150" y="400" fill="#201E1E" width="50" height="50"/>
	<rect x="1100" y="400" fill="#201E1E" width="50" height="50"/>
	<rect x="1050" y="400" fill="#201E1E" width="50" height="50"/>
	<rect x="1000" y="400" fill="#201E1E" width="50" height="50"/>
	<rect x="2000" y="400" fill="#201E1E" width="50" height="50"/>
	<rect x="2050" y="400" fill="#201E1E" width="50" height="50"/>
	<rect x="2150" y="400" fill="#201E1E" width="50" height="50"/>
	<rect x="2100" y="400" fill="#201E1E" width="50" height="50"/>
	<rect x="2350" y="400" fill="#201E1E" width="50" height="50"/>
	<rect x="2300" y="400" fill="#201E1E" width="50" height="50"/>
	<rect x="2200" y="400" fill="#201E1E" width="50" height="50"/>
	<rect x="2250" y="400" fill="#201E1E" width="50" height="50"/>
	<rect x="2750" y="400" fill="#201E1E" width="50" height="50"/>
	<rect x="2700" y="400" fill="#201E1E" width="50" height="50"/>
	<rect x="2600" y="400" fill="#201E1E" width="50" height="50"/>
	<rect x="2650" y="400" fill="#201E1E" width="50" height="50"/>
	<rect x="2400" y="400" fill="#201E1E" width="50" height="50"/>
	<rect x="2450" y="400" fill="#201E1E" width="50" height="50"/>
	<rect x="2550" y="400" fill="#201E1E" width="50" height="50"/>
	<rect x="2500" y="400" fill="#201E1E" width="50" height="50"/>
	<rect x="2800" y="400" fill="#201E1E" width="50" height="50"/>
	<rect x="2850" y="400" fill="#201E1E" width="50" height="50"/>
	<rect x="2900" y="400" fill="#201E1E" width="50" height="50"/>
	<rect x="2950" y="400" fill="#201E1E" width="50" height="50"/>
	</g>
</g>
</svg>
