<?xml version="1.0" encoding="UTF-8"?>
<!DOCTYPE svg PUBLIC "-//W3C//DTD SVG 1.1//EN" "http://www.w3.org/Graphics/SVG/1.1/DTD/svg11.dtd">
<!-- Creator: CorelDRAW X6 -->
<svg xmlns="http://www.w3.org/2000/svg" xml:space="preserve" width="3000px" height="500px" version="1.1" style="shape-rendering:geometricPrecision; text-rendering:geometricPrecision; image-rendering:optimizeQuality; fill-rule:evenodd; clip-rule:evenodd"
viewBox="0 0 3000 500"
 xmlns:xlink="http://www.w3.org/1999/xlink">
 <defs>
  <style type="text/css">
   <![CDATA[
    .fil0 {fill:none}
    .fil1 {fill:#201E1E}
   ]]>
  </style>
 </defs>
 <g id="POSICION_x0020_DETALLES">
  <metadata id="CorelCorpID_0Corel-Layer"/>
  <rect class="fil0" width="3000" height="500"/>
  <rect class="fil1" x="156" y="277" width="84" height="73"/>
  <rect class="fil1" x="245" y="30" width="85" height="70"/>
  <rect class="fil1" x="450" y="270" width="85" height="80"/>
  <rect class="fil1" x="793" y="272" width="85" height="79"/>
  <rect class="fil1" x="725" y="305" width="85" height="45"/>
  <rect class="fil1" x="1123" y="271" width="85" height="79"/>
  <rect class="fil1" x="1190" y="305" width="85" height="45"/>
  <rect class="fil1" x="1465" y="271" width="85" height="79"/>
  <rect class="fil1" x="1671" y="30" width="85" height="70"/>
  <rect class="fil1" x="1760" y="280" width="85" height="70"/>
  <rect class="fil1" x="2155" y="280" width="85" height="70"/>
  <rect class="fil1" x="2246" y="30" width="85" height="70"/>
  <rect class="fil1" x="2445" y="273" width="85" height="77"/>
  <rect class="fil1" x="2790" y="273" width="85" height="77"/>
  <rect class="fil1" x="2725" y="310" width="85" height="40"/>
 </g>
</svg>
